<?xml version="1.0" standalone="no"?>
<!DOCTYPE svg PUBLIC "-//W3C//DTD SVG 20010904//EN"
 "http://www.w3.org/TR/2001/REC-SVG-20010904/DTD/svg10.dtd">
<svg version="1.0" xmlns="http://www.w3.org/2000/svg"
 width="1111.000000pt" height="1280.000000pt" viewBox="0 0 1111.000000 1280.000000"
 preserveAspectRatio="xMidYMid meet">
<metadata>
Created by potrace 1.15, written by Peter Selinger 2001-2017
</metadata>
<g transform="translate(0.000000,1280.000000) scale(0.100000,-0.100000)"
fill="#000000" stroke="none">
<path d="M1351 12791 c-50 -6 -58 -12 -120 -76 -134 -142 -264 -379 -349 -638
-235 -715 -188 -1608 127 -2391 l32 -79 -45 -106 c-205 -489 -328 -1026 -376
-1641 -10 -133 -7 -806 5 -832 7 -17 -12 -18 -309 -18 l-316 0 0 -65 0 -65
320 0 320 0 4 -22 c3 -13 12 -68 21 -123 9 -55 29 -153 44 -218 20 -81 25
-120 17 -122 -6 -2 -132 -31 -279 -64 -148 -33 -271 -61 -273 -64 -8 -7 23
-122 32 -121 5 1 134 30 287 64 153 34 280 60 282 58 2 -2 29 -66 60 -143 31
-77 80 -186 110 -242 l55 -102 -210 -146 c-116 -81 -210 -148 -210 -151 0 -2
16 -27 36 -54 l36 -50 62 43 c200 141 357 249 360 246 1 -2 24 -35 51 -74 165
-234 428 -477 705 -650 118 -74 383 -209 510 -259 236 -95 529 -184 796 -241
139 -30 493 -95 517 -95 4 0 7 -15 7 -32 -1 -27 -9 -39 -46 -68 -84 -66 -224
-237 -322 -395 -83 -135 -157 -280 -255 -505 -52 -118 -130 -296 -174 -395
-44 -99 -83 -189 -87 -200 -7 -18 -14 -13 -63 40 -180 195 -496 598 -683 870
-101 148 -141 191 -205 221 -121 57 -234 8 -275 -120 -18 -56 -8 -198 18 -266
47 -120 416 -661 663 -970 306 -385 588 -672 908 -928 112 -90 333 -244 418
-291 27 -16 50 -40 67 -72 15 -26 51 -82 82 -124 l55 -77 -7 -152 c-7 -178 8
-430 31 -536 56 -246 208 -362 455 -347 180 11 299 92 359 245 21 54 46 175
56 273 l6 57 40 -9 c99 -23 368 -50 601 -61 202 -9 310 -9 510 0 232 12 499
39 598 61 22 5 40 8 40 7 0 0 3 -26 6 -56 33 -353 151 -501 414 -517 99 -6
201 14 265 52 57 33 122 107 150 168 54 124 82 386 71 663 l-7 152 60 83 c110
153 194 352 245 580 27 121 66 400 66 474 0 75 7 80 52 39 58 -52 151 -110
217 -135 84 -31 190 -25 257 16 129 81 150 291 59 615 -69 246 -216 622 -345
885 -95 194 -228 404 -334 527 -61 72 -68 84 -82 154 -9 41 -14 77 -12 78 1 1
66 13 143 25 198 32 471 93 672 151 720 208 1255 544 1607 1010 44 58 85 104
91 104 6 -1 96 -61 200 -133 103 -73 188 -131 189 -129 2 2 17 24 35 50 18 25
30 51 27 56 -3 6 -88 67 -189 137 -100 70 -185 130 -189 134 -4 3 26 71 65
151 40 80 90 192 112 250 21 58 40 107 41 108 1 2 128 -24 281 -58 153 -34
282 -63 287 -64 9 -1 40 114 32 121 -2 3 -125 31 -273 64 -147 33 -273 62
-279 64 -7 2 -3 35 13 97 20 78 43 197 69 356 l5 32 319 0 320 0 0 65 0 65
-315 0 -315 0 7 28 c14 47 9 745 -5 877 -59 538 -178 1001 -379 1472 l-65 152
39 93 c144 336 232 677 279 1078 24 197 24 573 0 770 -62 529 -243 994 -481
1237 l-70 71 -100 7 c-553 41 -1175 -254 -1856 -877 -53 -48 -102 -88 -108
-88 -6 0 -37 13 -69 29 -100 50 -351 147 -532 206 -759 246 -1581 306 -2443
180 -455 -67 -934 -199 -1305 -361 l-63 -27 -32 30 c-447 413 -870 688 -1260
818 -192 64 -305 85 -482 90 -82 2 -174 0 -204 -4z m2039 -10599 l0 -33 -30
23 -30 22 22 23 c26 27 38 16 38 -35z"/>
</g>
</svg>
